<?xml version="1.0" encoding="utf-8"?>
<!-- Generator: Adobe Illustrator 22.1.0, SVG Export Plug-In . SVG Version: 6.00 Build 0)  -->
<svg version="1.1" id="Layer_1" xmlns="http://www.w3.org/2000/svg" xmlns:xlink="http://www.w3.org/1999/xlink" x="0px" y="0px"
	 viewBox="0 0 314.6 86" style="enable-background:new 0 0 314.6 86;" xml:space="preserve">
<style type="text/css">
	.st0{fill:#17B1E0;}
	.st1{fill:#D81C57;}
	.st2{fill:#2CB07A;}
	.st3{fill:#E4AC2C;}
</style>
<g>
	<g id="XMLID_446_">
		<path id="XMLID_453_" class="st0" d="M27.5,0.9C12.1,1.2,0,14.2,0,29.6l0,10.8v16.8V80c0,3.3,2.7,6,6,6h0c3.3,0,6-2.7,6-6V57.2
			h15.5C43,57.2,56,45.1,56.3,29.7C56.7,13.6,43.5,0.5,27.5,0.9z M28.2,45.1H12.1v-4.7V29c0-8.9,7.2-16.1,16.1-16.1
			S44.2,20.2,44.2,29S37,45.1,28.2,45.1z"/>
		<path id="XMLID_452_" class="st0" d="M66,57.2L66,57.2c3.3,0,6-2.7,6-6V6.9c0-3.3-2.7-6-6-6h0c-3.3,0-6,2.7-6,6v44.2
			C59.9,54.5,62.6,57.2,66,57.2z"/>
		<path id="XMLID_449_" class="st0" d="M104.2,0.9C88.7,0.9,76.1,13.5,76.1,29s12.6,28.2,28.2,28.2s28.2-12.6,28.2-28.2
			C132.4,13.5,119.8,0.9,104.2,0.9z M104.2,45.1c-8.9,0-16.1-7.2-16.1-16.1s7.2-16.1,16.1-16.1c8.9,0,16.1,7.2,16.1,16.1
			C120.3,37.9,113.1,45.1,104.2,45.1z"/>
		<path id="XMLID_448_" class="st0" d="M164,0.9c-15.3,0.5-27.3,13.4-27.3,28.7v21.5c0,3.3,2.7,6,6,6h0c3.3,0,6-2.7,6-6V29.5
			c0-8.7,6.6-16.1,15.3-16.5c9.2-0.5,16.9,6.9,16.9,16.1v22.1c0,3.3,2.7,6,6,6h0c3.3,0,6-2.7,6-6V29C193.1,13.2,180,0.4,164,0.9z"/>
		<path id="XMLID_447_" class="st0" d="M240.8,6.9v21.7c0,8.7-6.6,16.1-15.3,16.5c-9.2,0.5-16.9-6.9-16.9-16.1V6.9c0-3.3-2.7-6-6-6
			h0c-3.3,0-6,2.7-6,6v21.5c0,15.3,12,28.3,27.3,28.7c15.9,0.5,29-12.3,29-28.1V6.9c0-3.3-2.7-6-6-6h0
			C243.5,0.9,240.8,3.6,240.8,6.9z"/>
	</g>
	<path id="XMLID_6_" class="st1" d="M295.8,27.3l17-17c2.4-2.4,2.4-6.2,0-8.5c-1.2-1.2-2.7-1.8-4.3-1.8c-1.5,0-3.1,0.6-4.3,1.8
		l-17,17v4v4.5h4.5H295.8z"/>
	<path id="XMLID_4_" class="st2" d="M274.7,31.3l-17,17c-2.4,2.4-2.4,6.2,0,8.5c2.4,2.4,6.2,2.4,8.5,0l17-17v-4v-4.5h-4.5H274.7z"/>
	<path id="XMLID_3_" class="st0" d="M312.8,56.8c2.4-2.4,2.4-6.2,0-8.5l-17-17h-4h-4.5v4.5v4l17,17
		C306.6,59.2,310.5,59.2,312.8,56.8z"/>
	<path id="XMLID_1_" class="st3" d="M274.7,27.3h4h4.5v-4.5v-4l-17-17C265.1,0.6,263.6,0,262,0c-1.5,0-3.1,0.6-4.3,1.8
		c-2.4,2.4-2.4,6.2,0,8.5L274.7,27.3z"/>
</g>
</svg>
