<?xml version="1.0" encoding="utf-8"?>
<!-- Generator: Adobe Illustrator 22.1.0, SVG Export Plug-In . SVG Version: 6.00 Build 0)  -->
<svg version="1.1" id="Layer_1" xmlns="http://www.w3.org/2000/svg" xmlns:xlink="http://www.w3.org/1999/xlink" x="0px" y="0px"
	 viewBox="0 0 256 256" style="enable-background:new 0 0 256 256;" xml:space="preserve">
<style type="text/css">
	.st0{fill:#D81C57;}
	.st1{fill:#2CB07A;}
	.st2{fill:#17B1E0;}
	.st3{fill:#E4AC2C;}
</style>
<g>
	<path id="XMLID_443_" class="st0" d="M174.1,119.2L248.3,45c10.3-10.3,10.3-27,0-37.3C243.1,2.6,236.4,0,229.6,0
		c-6.7,0-13.5,2.6-18.6,7.7l-74.2,74.2v17.6v19.7h19.7H174.1z"/>
	<path id="XMLID_424_" class="st1" d="M81.9,136.8L7.7,211c-10.3,10.3-10.3,27,0,37.3c10.3,10.3,27,10.3,37.3,0l74.2-74.2v-17.6
		v-19.7H99.5H81.9z"/>
	<path id="XMLID_423_" class="st2" d="M248.3,248.3c10.3-10.3,10.3-27,0-37.3l-74.2-74.2h-17.6h-19.7v19.7v17.6l74.2,74.2
		C221.3,258.6,238,258.6,248.3,248.3z"/>
	<path id="XMLID_375_" class="st3" d="M81.9,119.2h17.6h19.7V99.5V81.9L45,7.7C39.8,2.6,33.1,0,26.4,0S12.9,2.6,7.7,7.7
		C-2.6,18-2.6,34.7,7.7,45L81.9,119.2z"/>
</g>
</svg>
